<?xml version="1.0" encoding="UTF-8" standalone="no"?>
<!DOCTYPE svg PUBLIC "-//W3C//DTD SVG 1.1//EN"
 "http://www.w3.org/Graphics/SVG/1.1/DTD/svg11.dtd">
<!-- Generated by graphviz version 3.0.0 (20220226.1711)
 -->
<!-- Title: dependencies Pages: 1 -->
<svg width="326pt" height="174pt"
 viewBox="0.00 0.00 326.00 173.80" xmlns="http://www.w3.org/2000/svg" xmlns:xlink="http://www.w3.org/1999/xlink">
<g id="graph0" class="graph" transform="scale(1 1) rotate(0) translate(4 169.8)">
<title>dependencies</title>
<polygon fill="white" stroke="transparent" points="-4,4 -4,-169.8 322,-169.8 322,4 -4,4"/>
<text text-anchor="middle" x="159" y="-8.2" font-family="sans-serif" font-size="14.00">dependencies</text>
<g id="clust1" class="cluster">
<title>cluster_UsecaseModule</title>
<polygon fill="none" stroke="black" stroke-dasharray="1,5" points="8,-32.8 8,-157.8 310,-157.8 310,-32.8 8,-32.8"/>
</g>
<g id="clust3" class="cluster">
<title>cluster_UsecaseModule_imports</title>
<polygon fill="none" stroke="black" points="16,-40.8 16,-92.8 302,-92.8 302,-40.8 16,-40.8"/>
</g>
<!-- ExceptionsModule -->
<g id="node1" class="node">
<title>ExceptionsModule</title>
<polygon fill="#8dd3c7" stroke="black" points="293.76,-84.8 290.76,-88.8 269.76,-88.8 266.76,-84.8 172.24,-84.8 172.24,-48.8 293.76,-48.8 293.76,-84.8"/>
<text text-anchor="middle" x="233" y="-62.6" font-family="Times,serif" font-size="14.00">ExceptionsModule</text>
</g>
<!-- UsecaseModule -->
<g id="node3" class="node">
<title>UsecaseModule</title>
<polygon fill="#8dd3c7" stroke="black" points="213.91,-149.8 210.91,-153.8 189.91,-153.8 186.91,-149.8 108.09,-149.8 108.09,-113.8 213.91,-113.8 213.91,-149.8"/>
<text text-anchor="middle" x="161" y="-127.6" font-family="Times,serif" font-size="14.00">UsecaseModule</text>
</g>
<!-- ExceptionsModule&#45;&gt;UsecaseModule -->
<g id="edge1" class="edge">
<title>ExceptionsModule&#45;&gt;UsecaseModule</title>
<path fill="none" stroke="black" d="M192.91,-84.91C192.91,-84.91 192.91,-103.79 192.91,-103.79"/>
<polygon fill="black" stroke="black" points="189.41,-103.79 192.91,-113.79 196.41,-103.79 189.41,-103.79"/>
</g>
<!-- RepositoriesModule -->
<g id="node2" class="node">
<title>RepositoriesModule</title>
<polygon fill="#8dd3c7" stroke="black" points="153.55,-84.8 150.55,-88.8 129.55,-88.8 126.55,-84.8 24.45,-84.8 24.45,-48.8 153.55,-48.8 153.55,-84.8"/>
<text text-anchor="middle" x="89" y="-62.6" font-family="Times,serif" font-size="14.00">RepositoriesModule</text>
</g>
<!-- RepositoriesModule&#45;&gt;UsecaseModule -->
<g id="edge2" class="edge">
<title>RepositoriesModule&#45;&gt;UsecaseModule</title>
<path fill="none" stroke="black" d="M131.03,-84.91C131.03,-84.91 131.03,-103.79 131.03,-103.79"/>
<polygon fill="black" stroke="black" points="127.53,-103.79 131.03,-113.79 134.53,-103.79 127.53,-103.79"/>
</g>
</g>
</svg>
