<?xml version="1.0" encoding="UTF-8" standalone="no"?>
<!DOCTYPE svg PUBLIC "-//W3C//DTD SVG 1.1//EN"
 "http://www.w3.org/Graphics/SVG/1.1/DTD/svg11.dtd">
<!-- Generated by graphviz version 3.0.0 (20220226.1711)
 -->
<!-- Title: dependencies Pages: 1 -->
<svg width="834pt" height="174pt"
 viewBox="0.00 0.00 834.00 173.80" xmlns="http://www.w3.org/2000/svg" xmlns:xlink="http://www.w3.org/1999/xlink">
<g id="graph0" class="graph" transform="scale(1 1) rotate(0) translate(4 169.8)">
<title>dependencies</title>
<polygon fill="white" stroke="transparent" points="-4,4 -4,-169.8 830,-169.8 830,4 -4,4"/>
<text text-anchor="middle" x="413" y="-8.2" font-family="sans-serif" font-size="14.00">dependencies</text>
<g id="clust1" class="cluster">
<title>cluster_AppModule</title>
<polygon fill="none" stroke="black" stroke-dasharray="1,5" points="8,-32.8 8,-157.8 818,-157.8 818,-32.8 8,-32.8"/>
</g>
<g id="clust3" class="cluster">
<title>cluster_AppModule_imports</title>
<polygon fill="none" stroke="black" points="16,-40.8 16,-92.8 810,-92.8 810,-40.8 16,-40.8"/>
</g>
<!-- ApiModule -->
<g id="node1" class="node">
<title>ApiModule</title>
<polygon fill="#8dd3c7" stroke="black" points="802.05,-84.8 799.05,-88.8 778.05,-88.8 775.05,-84.8 721.95,-84.8 721.95,-48.8 802.05,-48.8 802.05,-84.8"/>
<text text-anchor="middle" x="762" y="-62.6" font-family="Times,serif" font-size="14.00">ApiModule</text>
</g>
<!-- AppModule -->
<g id="node7" class="node">
<title>AppModule</title>
<polygon fill="#8dd3c7" stroke="black" points="488.66,-149.8 485.66,-153.8 464.66,-153.8 461.66,-149.8 405.34,-149.8 405.34,-113.8 488.66,-113.8 488.66,-149.8"/>
<text text-anchor="middle" x="447" y="-127.6" font-family="Times,serif" font-size="14.00">AppModule</text>
</g>
<!-- ApiModule&#45;&gt;AppModule -->
<g id="edge1" class="edge">
<title>ApiModule&#45;&gt;AppModule</title>
<path fill="none" stroke="black" d="M762,-85.08C762,-106.12 762,-137.8 762,-137.8 762,-137.8 498.83,-137.8 498.83,-137.8"/>
<polygon fill="black" stroke="black" points="498.83,-134.3 488.83,-137.8 498.83,-141.3 498.83,-134.3"/>
</g>
<!-- ExceptionsModule -->
<g id="node2" class="node">
<title>ExceptionsModule</title>
<polygon fill="#8dd3c7" stroke="black" points="703.76,-84.8 700.76,-88.8 679.76,-88.8 676.76,-84.8 582.24,-84.8 582.24,-48.8 703.76,-48.8 703.76,-84.8"/>
<text text-anchor="middle" x="643" y="-62.6" font-family="Times,serif" font-size="14.00">ExceptionsModule</text>
</g>
<!-- ExceptionsModule&#45;&gt;AppModule -->
<g id="edge2" class="edge">
<title>ExceptionsModule&#45;&gt;AppModule</title>
<path fill="none" stroke="black" d="M643,-84.82C643,-102.17 643,-125.8 643,-125.8 643,-125.8 499.05,-125.8 499.05,-125.8"/>
<polygon fill="black" stroke="black" points="499.05,-122.3 489.05,-125.8 499.05,-129.3 499.05,-122.3"/>
</g>
<!-- LoggerModule -->
<g id="node3" class="node">
<title>LoggerModule</title>
<polygon fill="#8dd3c7" stroke="black" points="563.98,-84.8 560.98,-88.8 539.98,-88.8 536.98,-84.8 464.02,-84.8 464.02,-48.8 563.98,-48.8 563.98,-84.8"/>
<text text-anchor="middle" x="514" y="-62.6" font-family="Times,serif" font-size="14.00">LoggerModule</text>
</g>
<!-- LoggerModule&#45;&gt;AppModule -->
<g id="edge3" class="edge">
<title>LoggerModule&#45;&gt;AppModule</title>
<path fill="none" stroke="black" d="M476.42,-84.91C476.42,-84.91 476.42,-103.79 476.42,-103.79"/>
<polygon fill="black" stroke="black" points="472.92,-103.79 476.42,-113.79 479.92,-103.79 472.92,-103.79"/>
</g>
<!-- RepositoriesModule -->
<g id="node4" class="node">
<title>RepositoriesModule</title>
<polygon fill="#8dd3c7" stroke="black" points="445.55,-84.8 442.55,-88.8 421.55,-88.8 418.55,-84.8 316.45,-84.8 316.45,-48.8 445.55,-48.8 445.55,-84.8"/>
<text text-anchor="middle" x="381" y="-62.6" font-family="Times,serif" font-size="14.00">RepositoriesModule</text>
</g>
<!-- RepositoriesModule&#45;&gt;AppModule -->
<g id="edge4" class="edge">
<title>RepositoriesModule&#45;&gt;AppModule</title>
<path fill="none" stroke="black" d="M425.47,-84.91C425.47,-84.91 425.47,-103.79 425.47,-103.79"/>
<polygon fill="black" stroke="black" points="421.97,-103.79 425.47,-113.79 428.97,-103.79 421.97,-103.79"/>
</g>
<!-- TypeormConfigModule -->
<g id="node5" class="node">
<title>TypeormConfigModule</title>
<polygon fill="#8dd3c7" stroke="black" points="297.76,-84.8 294.76,-88.8 273.76,-88.8 270.76,-84.8 148.24,-84.8 148.24,-48.8 297.76,-48.8 297.76,-84.8"/>
<text text-anchor="middle" x="223" y="-62.6" font-family="Times,serif" font-size="14.00">TypeormConfigModule</text>
</g>
<!-- TypeormConfigModule&#45;&gt;AppModule -->
<g id="edge5" class="edge">
<title>TypeormConfigModule&#45;&gt;AppModule</title>
<path fill="none" stroke="black" d="M223,-84.82C223,-102.17 223,-125.8 223,-125.8 223,-125.8 395.13,-125.8 395.13,-125.8"/>
<polygon fill="black" stroke="black" points="395.13,-129.3 405.13,-125.8 395.13,-122.3 395.13,-129.3"/>
</g>
<!-- UsecaseModule -->
<g id="node6" class="node">
<title>UsecaseModule</title>
<polygon fill="#8dd3c7" stroke="black" points="129.91,-84.8 126.91,-88.8 105.91,-88.8 102.91,-84.8 24.09,-84.8 24.09,-48.8 129.91,-48.8 129.91,-84.8"/>
<text text-anchor="middle" x="77" y="-62.6" font-family="Times,serif" font-size="14.00">UsecaseModule</text>
</g>
<!-- UsecaseModule&#45;&gt;AppModule -->
<g id="edge6" class="edge">
<title>UsecaseModule&#45;&gt;AppModule</title>
<path fill="none" stroke="black" d="M77,-85.08C77,-106.12 77,-137.8 77,-137.8 77,-137.8 395.28,-137.8 395.28,-137.8"/>
<polygon fill="black" stroke="black" points="395.28,-141.3 405.28,-137.8 395.28,-134.3 395.28,-141.3"/>
</g>
</g>
</svg>
