<?xml version="1.0" encoding="UTF-8" standalone="no"?>
<!DOCTYPE svg PUBLIC "-//W3C//DTD SVG 1.1//EN"
 "http://www.w3.org/Graphics/SVG/1.1/DTD/svg11.dtd">
<!-- Generated by graphviz version 3.0.0 (20220226.1711)
 -->
<!-- Title: dependencies Pages: 1 -->
<svg width="710pt" height="315pt"
 viewBox="0.00 0.00 710.00 314.80" xmlns="http://www.w3.org/2000/svg" xmlns:xlink="http://www.w3.org/1999/xlink">
<g id="graph0" class="graph" transform="scale(1 1) rotate(0) translate(4 310.8)">
<title>dependencies</title>
<polygon fill="white" stroke="transparent" points="-4,4 -4,-310.8 706,-310.8 706,4 -4,4"/>
<text text-anchor="middle" x="351" y="-8.2" font-family="sans-serif" font-size="14.00">dependencies</text>
<g id="clust7" class="cluster">
<title>cluster_AppModule</title>
<polygon fill="none" stroke="black" stroke-dasharray="1,5" points="8,-108.8 8,-298.8 694,-298.8 694,-108.8 8,-108.8"/>
</g>
<g id="clust9" class="cluster">
<title>cluster_AppModule_imports</title>
<polygon fill="none" stroke="black" points="16,-116.8 16,-233.8 686,-233.8 686,-116.8 16,-116.8"/>
</g>
<g id="clust19" class="cluster">
<title>cluster_LoggerModule</title>
<polygon fill="none" stroke="black" stroke-dasharray="1,5" points="376,-32.8 376,-100.8 544,-100.8 544,-32.8 376,-32.8"/>
</g>
<g id="clust24" class="cluster">
<title>cluster_LoggerModule_providers</title>
<polygon fill="none" stroke="black" points="384,-40.8 384,-92.8 536,-92.8 536,-40.8 384,-40.8"/>
</g>
<!-- ApiModule -->
<g id="node1" class="node">
<title>ApiModule</title>
<polygon fill="#8dd3c7" stroke="black" points="392.05,-160.8 389.05,-164.8 368.05,-164.8 365.05,-160.8 311.95,-160.8 311.95,-124.8 392.05,-124.8 392.05,-160.8"/>
<text text-anchor="middle" x="352" y="-138.6" font-family="Times,serif" font-size="14.00">ApiModule</text>
</g>
<!-- AppModule -->
<g id="node7" class="node">
<title>AppModule</title>
<polygon fill="#8dd3c7" stroke="black" points="380.66,-290.8 377.66,-294.8 356.66,-294.8 353.66,-290.8 297.34,-290.8 297.34,-254.8 380.66,-254.8 380.66,-290.8"/>
<text text-anchor="middle" x="339" y="-268.6" font-family="Times,serif" font-size="14.00">AppModule</text>
</g>
<!-- ApiModule&#45;&gt;AppModule -->
<g id="edge1" class="edge">
<title>ApiModule&#45;&gt;AppModule</title>
<path fill="none" stroke="black" d="M346.28,-160.88C346.28,-160.88 346.28,-244.46 346.28,-244.46"/>
<polygon fill="black" stroke="black" points="342.78,-244.46 346.28,-254.46 349.78,-244.46 342.78,-244.46"/>
</g>
<!-- ExceptionsModule -->
<g id="node2" class="node">
<title>ExceptionsModule</title>
<polygon fill="#8dd3c7" stroke="black" points="145.76,-160.8 142.76,-164.8 121.76,-164.8 118.76,-160.8 24.24,-160.8 24.24,-124.8 145.76,-124.8 145.76,-160.8"/>
<text text-anchor="middle" x="85" y="-138.6" font-family="Times,serif" font-size="14.00">ExceptionsModule</text>
</g>
<!-- UsecaseModule -->
<g id="node6" class="node">
<title>UsecaseModule</title>
<polygon fill="#8dd3c7" stroke="black" points="281.91,-225.8 278.91,-229.8 257.91,-229.8 254.91,-225.8 176.09,-225.8 176.09,-189.8 281.91,-189.8 281.91,-225.8"/>
<text text-anchor="middle" x="229" y="-203.6" font-family="Times,serif" font-size="14.00">UsecaseModule</text>
</g>
<!-- ExceptionsModule&#45;&gt;UsecaseModule -->
<g id="edge8" class="edge">
<title>ExceptionsModule&#45;&gt;UsecaseModule</title>
<path fill="none" stroke="black" d="M105.29,-160.91C105.29,-180.14 105.29,-207.8 105.29,-207.8 105.29,-207.8 166.18,-207.8 166.18,-207.8"/>
<polygon fill="black" stroke="black" points="166.18,-211.3 176.18,-207.8 166.18,-204.3 166.18,-211.3"/>
</g>
<!-- ExceptionsModule&#45;&gt;AppModule -->
<g id="edge2" class="edge">
<title>ExceptionsModule&#45;&gt;AppModule</title>
<path fill="none" stroke="black" d="M64.71,-160.86C64.71,-197.85 64.71,-278.8 64.71,-278.8 64.71,-278.8 287.04,-278.8 287.04,-278.8"/>
<polygon fill="black" stroke="black" points="287.04,-282.3 297.04,-278.8 287.04,-275.3 287.04,-282.3"/>
</g>
<!-- LoggerModule -->
<g id="node3" class="node">
<title>LoggerModule</title>
<polygon fill="#8dd3c7" stroke="black" points="509.98,-160.8 506.98,-164.8 485.98,-164.8 482.98,-160.8 410.02,-160.8 410.02,-124.8 509.98,-124.8 509.98,-160.8"/>
<text text-anchor="middle" x="460" y="-138.6" font-family="Times,serif" font-size="14.00">LoggerModule</text>
</g>
<!-- LoggerModule&#45;&gt;AppModule -->
<g id="edge3" class="edge">
<title>LoggerModule&#45;&gt;AppModule</title>
<path fill="none" stroke="black" d="M460,-160.83C460,-195.22 460,-266.8 460,-266.8 460,-266.8 390.98,-266.8 390.98,-266.8"/>
<polygon fill="black" stroke="black" points="390.98,-263.3 380.98,-266.8 390.98,-270.3 390.98,-263.3"/>
</g>
<!-- RepositoriesModule -->
<g id="node4" class="node">
<title>RepositoriesModule</title>
<polygon fill="#8dd3c7" stroke="black" points="293.55,-160.8 290.55,-164.8 269.55,-164.8 266.55,-160.8 164.45,-160.8 164.45,-124.8 293.55,-124.8 293.55,-160.8"/>
<text text-anchor="middle" x="229" y="-138.6" font-family="Times,serif" font-size="14.00">RepositoriesModule</text>
</g>
<!-- RepositoriesModule&#45;&gt;UsecaseModule -->
<g id="edge9" class="edge">
<title>RepositoriesModule&#45;&gt;UsecaseModule</title>
<path fill="none" stroke="black" d="M229,-160.91C229,-160.91 229,-179.79 229,-179.79"/>
<polygon fill="black" stroke="black" points="225.5,-179.79 229,-189.79 232.5,-179.79 225.5,-179.79"/>
</g>
<!-- RepositoriesModule&#45;&gt;AppModule -->
<g id="edge4" class="edge">
<title>RepositoriesModule&#45;&gt;AppModule</title>
<path fill="none" stroke="black" d="M287.74,-160.83C287.74,-195.22 287.74,-266.8 287.74,-266.8 287.74,-266.8 288.68,-266.8 288.68,-266.8"/>
<polygon fill="black" stroke="black" points="287.14,-270.3 297.14,-266.8 287.14,-263.3 287.14,-270.3"/>
</g>
<!-- TypeormConfigModule -->
<g id="node5" class="node">
<title>TypeormConfigModule</title>
<polygon fill="#8dd3c7" stroke="black" points="677.76,-160.8 674.76,-164.8 653.76,-164.8 650.76,-160.8 528.24,-160.8 528.24,-124.8 677.76,-124.8 677.76,-160.8"/>
<text text-anchor="middle" x="603" y="-138.6" font-family="Times,serif" font-size="14.00">TypeormConfigModule</text>
</g>
<!-- TypeormConfigModule&#45;&gt;AppModule -->
<g id="edge5" class="edge">
<title>TypeormConfigModule&#45;&gt;AppModule</title>
<path fill="none" stroke="black" d="M603,-160.86C603,-197.85 603,-278.8 603,-278.8 603,-278.8 390.83,-278.8 390.83,-278.8"/>
<polygon fill="black" stroke="black" points="390.83,-275.3 380.83,-278.8 390.83,-282.3 390.83,-275.3"/>
</g>
<!-- UsecaseModule&#45;&gt;AppModule -->
<g id="edge6" class="edge">
<title>UsecaseModule&#45;&gt;AppModule</title>
<path fill="none" stroke="black" d="M281.81,-207.8C294.49,-207.8 304.45,-207.8 304.45,-207.8 304.45,-207.8 304.45,-244.69 304.45,-244.69"/>
<polygon fill="black" stroke="black" points="300.95,-244.69 304.45,-254.69 307.95,-244.69 300.95,-244.69"/>
</g>
<!-- LoggerService -->
<g id="node8" class="node">
<title>LoggerService</title>
<ellipse fill="#fdb462" stroke="black" cx="460" cy="-66.8" rx="67.76" ry="18"/>
<text text-anchor="middle" x="460" y="-62.6" font-family="Times,serif" font-size="14.00">LoggerService</text>
</g>
<!-- LoggerService&#45;&gt;LoggerModule -->
<g id="edge7" class="edge">
<title>LoggerService&#45;&gt;LoggerModule</title>
<path fill="none" stroke="black" d="M460,-84.81C460,-84.81 460,-114.65 460,-114.65"/>
<polygon fill="black" stroke="black" points="456.5,-114.65 460,-124.65 463.5,-114.65 456.5,-114.65"/>
</g>
</g>
</svg>
